<svg xmlns="http://www.w3.org/2000/svg" width="140" height="46" viewBox="0 0 140 46"><g fill-rule="evenodd" clip-rule="evenodd"><path fill="#FEDD00" d="M3.723 46C2.57 46 1.55 45.547.848 44.723c-.701-.826-.989-1.95-.785-3.088L5.646 3.936C6.041 1.73 8.107 0 10.349 0h125.928c1.152 0 2.174.453 2.875 1.277.701.825.986 1.951.783 3.087l-5.582 37.698c-.396 2.209-2.46 3.938-4.703 3.938H3.723z"/><path d="M69.111 13.088c-.01-.252-.049-.825-.075-1.082 0 0-.026-.534-.63-.717-1.061-.322-2.457-.459-3.478-.253-.417.084-.606.263-.513.804.116.682.172 1.179.21 1.784.401 6.107-1.852 11.71-5.849 15.565a14.508 14.508 0 0 0 1.388-6.201c0-8.155-6.73-14.79-15.001-14.79-8.271 0-15 6.635-15 14.79 0 1.677.289 3.288.813 4.793-2.716-3.619-4.974-8.882-4.042-16.144.2-1.554.369-3.514.782-4.954h-.006v-.008c.021-.429-.307-.735-.718-.816-4.807-.933-10.112-.248-12.045.297-.405.112-.731.297-.825.92 0 0-.295 1.719-.353 2.911a27.5 27.5 0 0 0 1.912 11.554c.044.112.088.225.134.338.065.162.133.323.202.482 4.379 10.307 14.595 17.537 26.506 17.537 4.42 0 8.605-.997 12.345-2.782 5.695-2.72 9.201-6.985 9.455-7.304 3.703-4.613 5.042-10.124 4.788-16.724M52.088 31.063a10.997 10.997 0 0 1-7.095 2.576c-2.706 0-5.178-.971-7.091-2.572l14.186-.004zm-8.499-9.583h2.637v6.904h-2.637V21.48zm-5.701 9.576a.013.013 0 0 1 .006.005l-.006-.005m15-15.739c1.903 1.947 3.08 4.586 3.08 7.503 0 2.918-1.179 5.561-3.083 7.506l.003-15.009zm-7.894-3.315c3.002 0 5.708 1.199 7.688 3.123l-2.147-.024v13.283h-1.99v-9.163h-.01v-.007H46.11v-4.065h-2.359v4.065h-2.36l.014 9.139h-2.071l.002-13.293-1.975-.001a11.006 11.006 0 0 1 7.633-3.057m-7.935 3.36l.021.01v14.914l-.011.003c-1.885-1.941-3.047-4.568-3.047-7.469-.001-2.894 1.159-5.518 3.037-7.458m72.631 18.98l.353-1.762h2.581c.046 0 1.233-.021 1.394-.818.085-.414-.66-.886-1.449-1.381-1.133-.712-2.542-1.597-2.289-2.877.315-1.502 1.877-2.51 3.889-2.51h2.646l-.369 1.771h-2.567c-.05.002-1.246.017-1.407.806-.084.416.666.884 1.458 1.379 1.14.711 2.56 1.602 2.293 2.883-.299 1.5-1.853 2.51-3.87 2.51h-2.663zm-3.19 0l-.15-1.377h-3.093l-.698 1.377h-2.133l4.77-9.348h2.416l.98 9.348H106.5zm-.323-3.15l-.259-3.743-1.761 3.743h2.02zm-9.425 3.15l1.527-7.561h-2.376l.368-1.771h6.82l-.369 1.771h-2.392l-1.528 7.561h-2.05zm-8.775 0l.352-1.762h2.584c.047 0 1.231-.021 1.391-.818.088-.414-.658-.886-1.449-1.381-1.131-.712-2.541-1.597-2.285-2.877.313-1.502 1.876-2.51 3.886-2.51h2.649l-.371 1.771h-2.566c-.049.002-1.248.017-1.41.806-.08.416.668.884 1.461 1.379 1.139.711 2.556 1.602 2.293 2.883-.299 1.5-1.854 2.51-3.871 2.51h-2.664zm-3.19 0l-.152-1.377h-3.093l-.694 1.377h-2.133l4.77-9.348h2.414l.979 9.348h-2.091zm-.322-3.15l-.258-3.743-1.763 3.743h2.021zm-12.408 3.15l1.896-9.332h3.369c.061 0 1.512.007 2.35.873.504.519.672 1.23.493 2.106-.588 2.886-3.93 2.917-3.964 2.917h-1.395l-.697 3.436h-2.052zm4.418-5.205c.058 0 1.404-.021 1.651-1.215.067-.348.01-.621-.177-.811-.311-.323-.906-.33-.913-.33h-1.401l-.477 2.355h1.317zm15.448-4.491l-1.506-2.093h1.671l.558.78.878-.78h1.771l-2.369 2.093h-1.003zm31.331-3.937l.351-1.76h2.584c.045 0 1.23-.022 1.395-.817.086-.418-.663-.885-1.452-1.382-1.131-.713-2.54-1.596-2.286-2.875.313-1.504 1.876-2.513 3.888-2.513h2.646l-.37 1.774h-2.565c-.049.002-1.248.015-1.408.805-.082.416.666.885 1.458 1.38 1.139.712 2.557 1.597 2.293 2.881-.299 1.501-1.854 2.508-3.872 2.508h-2.662zm-5.242 0c-.998 0-1.758-.26-2.252-.77-.848-.876-.602-2.161-.59-2.213l.695-3.448c.008-.028.633-2.917 3.961-2.917 1 0 1.761.261 2.255.776.85.874.599 2.157.589 2.213l-.695 3.443a3.884 3.884 0 0 1-3.963 2.916m1.529-7.574a1.586 1.586 0 0 0-1.637 1.215l-.696 3.443c0 .006-.103.538.217.867.178.186.467.278.86.278 1.373 0 1.641-1.163 1.65-1.215l.698-3.444c0-.005.096-.534-.226-.865-.18-.187-.473-.279-.866-.279m-10.385 7.574l-1.421-9.333h2.128l.777 5.676 3.079-5.676h2.159l-5.213 9.333h-1.509zm-7.441 0c-.998 0-1.756-.26-2.253-.77-.847-.876-.6-2.161-.589-2.213l1.291-6.35h2.05l-1.302 6.417c0 .006-.103.538.216.867.179.186.468.278.861.278 1.38 0 1.638-1.163 1.649-1.212l1.289-6.35h2.051l-1.299 6.417c-.008.032-.634 2.916-3.964 2.916m-8.713 0l1.527-7.563h-2.377l.371-1.77h6.815l-.368 1.77h-2.39l-1.527 7.563h-2.051zm-5.402 0c-.738 0-1.751-.228-2.381-.868-.431-.441-.619-1.025-.545-1.693h-.012l.043-.231.802-3.945h.014c.503-1.917 2.581-2.61 3.894-2.61h2.664l-.37 1.774h-2.58c-.521.025-1.438.194-1.608 1.041l-.199.969h1.187c.067.007.109.008.136.008h1.862l-.368 1.759h-3.128c-.076.306-.243.971-.26 1.052-.056.278-.007.498.146.655.244.25.729.318.979.318h2.66l-.352 1.771H87.6zm-6.579 0l1.896-9.348h2.05l-1.893 9.348h-2.053zm-6.371 0l1.895-9.348h2.053l-1.542 7.577h3.341l-.35 1.771H74.65z"/></g></svg>